<svg xmlns="http://www.w3.org/2000/svg" xmlns:xlink="http://www.w3.org/1999/xlink" viewBox="0 0 48 48" class="Navbar-embedded"><g id="Navbar-icon-menu">
    <rect x="15" y="16" width="18" height="2"/>
    <rect x="15" y="23" width="18" height="2"/>
    <rect x="15" y="30" width="18" height="2"/>
</g>
<g id="Navbar-icon-profile">
    <path d="M24.12,25.48a5.16,5.16,0,1,1,5.16-5.16A5.16,5.16,0,0,1,24.12,25.48Zm0-8.47a3.31,3.31,0,1,0,3.31,3.31A3.32,3.32,0,0,0,24.12,17Z"/>
    <path class="23d04aab-9b5b-44ec-b503-3476c6e102e5" d="M15.8,33V31.09a1.93,1.93,0,0,1,1.93-1.93H30.64a1.93,1.93,0,0,1,1.93,1.93V33h1.84V31.09a3.78,3.78,0,0,0-3.77-3.77H17.73A3.78,3.78,0,0,0,14,31.09V33H15.8Z"/>
</g>
</svg>